<?xml version="1.0" encoding="UTF-8"?>
<!-- Generator: Adobe Illustrator 26.0.1, SVG Export Plug-In . SVG Version: 6.00 Build 0)  -->
<svg width="1920" height="1080" version="1.1" viewBox="0 0 1920 1080" xml:space="preserve" xmlns="http://www.w3.org/2000/svg" xmlns:xlink="http://www.w3.org/1999/xlink"><defs><linearGradient id="linearGradient916" x2="1920" y1="1080" gradientUnits="userSpaceOnUse"><stop stop-color="#fff" offset="0"/><stop stop-color="#c7c7c7" offset="1"/></linearGradient></defs>
<style type="text/css">
	.st0{opacity:0.1;fill:none;stroke:#707070;stroke-width:4;}
	.st1{fill:#FFFFFF;}
	.st2{opacity:2.000000e-02;fill:#666666;}
	.st3{opacity:2.000000e-02;fill:#FB6E0D;}
	.st4{opacity:2.000000e-02;fill:#066666;}
	.st5{opacity:0.35;fill:none;stroke:#666666;stroke-width:2.5;stroke-miterlimit:10;stroke-dasharray:5.06,5.06;}
	.st6{opacity:0.1;fill:#FB6E0D;}
	.st7{opacity:0.1;}
	.st8{opacity:0.35;}
	.st9{fill:#FB6E0D;}
</style>
<rect width="1920" height="1080" fill="url(#linearGradient916)" stroke-linecap="round" stroke-linejoin="round" stroke-width="8" style="paint-order:stroke fill markers"/>
	
		<path class="st0" d="m1179.5 215.2"/>
		<g id="HEADER_MENU" transform="translate(-1)">
			<g transform="translate(-1)">
				<path id="Ellipse_5_00000159449886966707979460000002236469397323807664_" class="st1" d="m1830.5 33"/>
				<path id="Ellipse_5_00000167367498635233127170000003272993269042211007_" class="st1" d="m1830.5 51"/>
			</g>
		</g>
		<g id="BACKGROUNd" transform="translate(-347.1)">
			<path class="st2" d="m1221.2 596.9 149.2 410-406.1 147.8-149.2-410zm-2.9 338.4-67.4-185.3-183.4 66.8 67.3 185z"/>
			<path class="st3" d="m2483.3 18.7 162 445.2-445.2 162-162-445.2zm-4.4 368-73.2-201.2-201.1 73.2 73.1 200.9z"/>
			<path class="st2" d="m2199.7 631.1 162 445.2-445.2 162-162-445.2zm-4.3 367.9-73.2-201.2-201.1 73.2 73.1 200.9z"/>
			<path class="st2" d="m2133.6 452.3 64.1 176.1-174.4 63.5-64.1-176.1zm-1.3 145.4-29-79.6-78.8 28.7 28.9 79.4z"/>
			<path class="st4" d="m2376.6 566.9 64.1 176.1-174.4 63.5-64.1-176.1zm-1.2 145.3-29-79.6-78.8 28.7 28.9 79.4z"/>
			<path class="st3" d="m1971.8 0 162 445.2-445.2 162-162-445.2zm-4.3 367.9-73.2-201.2-201.1 73.2 73.1 200.9z"/>
			<path class="st2" d="m1956 517.3 64.1 176.1-174.4 63.5-64.1-176.1zm-1.2 145.4-29-79.6-78.8 28.7 28.9 79.4z"/>
			<path class="st3" d="m956.7 60.8 162 445.2-445.2 162-162-445.2zm-4.4 367.9-73.2-201.2-201.1 73.2 73.1 200.9z"/>
			<path class="st5" d="m1711.9 969.5s167.4-313 52.4-379-49-206.6 22.4-171.1 31.8 242.8-74.8 189.8c-46.9-23.3-85.7-86-114.5-148.8-48.2-105.3 13.9-228.6 127.5-251.3 50.8-10.2 104.9-6.5 151.8 27.9"/>
			<g transform="translate(347.1)">
				<path class="st6" d="m134.6 0.1 95.4 312.1-312.1 95.3-95.3-312.1zm-16.3 252.9-43.1-141.1-141 43.1 43 140.8z"/>
				<path class="st7" d="m1307.3 1272.8-254.5-146.9 145.5-252.1 254.5 146.9zm-144.9-175.9 115 66.4 65.7-113.9-114.8-66.3z"/>
				<path class="st6" d="m929 962.6-56.7 321.5-321.5-56.7 56.7-321.5zm-129.3 218.1 25.6-145.3-145.2-25.6-25.6 145.1z"/>
				<path class="st7" d="m1644.9 395-158.9-74.1 74.1-158.9 158.9 74.1zm-95.1-97.4 71.8 33.5 33.5-71.7-71.7-33.4z"/>
				<path class="st6" d="m1842.3 778v191.5h-191.5v-191.5zm-52.5 139.1v-86.6h-86.5v86.5z"/>
				<path class="st6" d="m523.3 608.3-36.5 188-188-36.5 36.5-188zm-78.1 126.5 16.5-85-84.9-16.5-16.5 84.8z"/>
				<g class="st8">
					<path class="st9" d="m235.7 989.9h-1.7v-2.5h5l0.1 2.5h-3.4zm-6.8-0.2c-1.7-0.1-3.4-0.2-5.1-0.4l0.2-2.5c1.7 0.2 3.4 0.3 5 0.4zm15.3-0.1-0.2-2.5c1.7-0.1 3.3-0.3 5-0.5l0.3 2.5c-1.7 0.2-3.4 0.4-5.1 0.5zm-25.5-0.8c-1.7-0.2-3.4-0.5-5.1-0.7l0.4-2.5c1.7 0.3 3.3 0.5 5 0.7zm35.7-0.4-0.4-2.4c1.6-0.3 3.3-0.6 4.9-0.9l0.5 2.4c-1.6 0.3-3.3 0.6-5 0.9zm-45.7-1.2c-1.7-0.3-3.3-0.7-5-1l0.6-2.4c1.6 0.4 3.3 0.7 4.9 1zm55.7-0.9-0.6-2.4c1.6-0.4 3.2-0.9 4.8-1.4l0.8 2.4c-1.7 0.5-3.4 1-5 1.4zm-65.7-1.4c-1.6-0.4-3.3-0.9-4.9-1.3l0.7-2.4c1.6 0.5 3.3 0.9 4.8 1.3zm75.4-1.7-0.9-2.3c1.5-0.6 3.1-1.2 4.6-1.9l1 2.3c-1.5 0.7-3.1 1.3-4.7 1.9zm-85.2-1.1c-1.6-0.5-3.2-1-4.8-1.6l0.8-2.4c1.6 0.5 3.2 1.1 4.8 1.6zm94.6-3-1.1-2.2c1.5-0.7 3-1.5 4.4-2.3l1.2 2.2c-1.4 0.8-3 1.6-4.5 2.3zm-104.2-0.2-4.8-1.8 0.9-2.3c1.6 0.6 3.1 1.2 4.7 1.8zm-9.5-3.8c-1.6-0.7-3.1-1.3-4.7-2l1-2.3c1.5 0.7 3.1 1.3 4.6 2zm122.7-0.9-1.3-2.1c1.4-0.9 2.8-1.8 4.2-2.7l1.4 2.1c-1.5 0.8-2.9 1.8-4.3 2.7zm-132-3.1c-1.5-0.7-3.1-1.4-4.6-2.2l1.1-2.2c1.5 0.7 3 1.4 4.6 2.2zm140.4-2.7-1.5-2c1.3-1 2.6-2 3.9-3.1l1.6 1.9c-1.3 1.1-2.7 2.2-4 3.2zm-149.5-1.8c-1.5-0.8-3-1.5-4.5-2.3l1.2-2.2c1.5 0.8 3 1.5 4.5 2.3zm-9-4.7c-1.5-0.8-3-1.6-4.4-2.5l1.2-2.2c1.5 0.8 2.9 1.6 4.4 2.5zm166.4 0-1.7-1.9c1.2-1.1 2.4-2.2 3.7-3.4l1.7 1.8c-1.2 1.2-2.5 2.4-3.7 3.5zm-175.3-5c-1.5-0.9-2.9-1.7-4.4-2.6l1.3-2.1c1.4 0.9 2.9 1.7 4.3 2.6zm182.6-2.1-1.8-1.7c1.1-1.2 2.3-2.4 3.4-3.7l1.9 1.7c-1.2 1.2-2.4 2.4-3.5 3.7zm-191.3-3.1c-1.3-0.8-2.6-1.6-3.9-2.5l-0.4-0.2 1.3-2.1 0.4 0.2 3.9 2.4zm198-4.6-1.9-1.6c1.1-1.3 2.1-2.6 3.1-3.9l2 1.5c-1 1.4-2.1 2.7-3.2 4zm-206.5-0.9c-1.4-0.9-2.8-1.9-4.2-2.8l1.4-2.1c1.4 0.9 2.8 1.9 4.2 2.8zm-8.5-5.7-4.2-3 1.5-2c1.4 1 2.7 2 4.1 2.9zm221.2-1.5-2-1.5c1-1.3 1.9-2.7 2.9-4.1l2.1 1.4c-1 1.5-2 2.9-3 4.2zm-229.4-4.4c-1.4-1-2.7-2-4-3.1l1.5-2c1.3 1 2.7 2.1 4 3.1zm235.1-4-2.1-1.3c0.9-1.4 1.8-2.8 2.6-4.3l2.1 1.3c-0.8 1.5-1.7 2.9-2.6 4.3zm-243.1-2.3c-1.3-1.1-2.6-2.1-3.9-3.2l1.6-1.9c1.3 1.1 2.6 2.2 3.9 3.2zm248.4-6.4-2.2-1.2c0.8-1.4 1.6-2.9 2.4-4.4l2.2 1.2c-0.8 1.5-1.6 2.9-2.4 4.4zm-256.2-0.2c-1.3-1.1-2.5-2.2-3.8-3.4l1.7-1.8c1.2 1.1 2.5 2.3 3.8 3.4zm-7.5-6.8-3.6-3.6 1.8-1.8c1.2 1.2 2.4 2.4 3.6 3.5zm268.5-2-2.2-1.1c0.8-1.5 1.5-3 2.2-4.5l2.2 1.1c-0.7 1.5-1.4 3-2.2 4.5zm-275.7-5.2c-1.2-1.2-2.3-2.5-3.5-3.7l1.9-1.7c1.1 1.2 2.3 2.5 3.4 3.7zm280.1-3.9-2.3-1c0.7-1.5 1.4-3 2.1-4.6l2.3 1c-0.7 1.5-1.4 3.1-2.1 4.6zm-286.9-3.7-3.3-3.9 1.9-1.6c1 1.3 2.1 2.6 3.2 3.9zm291-5.6-2.3-1c0.6-1.5 1.3-3.1 1.9-4.7l2.3 0.9c-0.6 1.7-1.2 3.2-1.9 4.8zm-297.4-2.4c-1-1.4-2-2.7-3-4.1l2-1.5c1 1.3 2 2.7 3 4zm301.1-7.1-2.3-0.9c0.6-1.6 1.2-3.1 1.7-4.7l2.4 0.8c-0.6 1.7-1.2 3.3-1.8 4.8zm-307.1-1.2c-0.9-1.4-1.9-2.9-2.8-4.3l2.1-1.3c0.9 1.4 1.8 2.8 2.7 4.2zm310.6-8.3-2.4-0.8c0.5-1.6 1.1-3.2 1.6-4.8l2.4 0.8c-0.5 1.6-1.1 3.2-1.6 4.8zm-316-0.3c-0.8-1.5-1.7-3-2.5-4.5l2.2-1.2c0.8 1.5 1.6 3 2.4 4.4zm-4.8-9c-0.8-1.5-1.5-3.1-2.2-4.6l2.3-1 2.1 4.5zm324-0.4-2.4-0.7 1.5-4.8 2.4 0.7-1.5 4.8zm-328.2-8.9c-0.6-1.6-1.3-3.2-1.8-4.8l2.3-0.9c0.6 1.6 1.2 3.1 1.8 4.7zm331.1-0.8-2.4-0.7c0.5-1.6 0.9-3.2 1.4-4.9l2.4 0.7c-0.5 1.7-1 3.3-1.4 4.9zm-334.6-8.8c-0.5-1.6-1-3.2-1.5-4.9l2.4-0.7 1.5 4.8zm337.3-1-2.4-0.6c0.4-1.6 0.8-3.2 1.3-4.9l2.4 0.6c-0.5 1.7-0.9 3.3-1.3 4.9zm-340.1-8.8c-0.4-1.6-0.8-3.3-1.1-5l2.4-0.5c0.3 1.6 0.7 3.3 1.1 4.9zm342.5-1-2.4-0.6c0.4-1.6 0.8-3.3 1.2-4.9l2.4 0.6c-0.4 1.6-0.8 3.3-1.2 4.9zm-344.6-9c-0.3-1.7-0.6-3.4-0.8-5l2.5-0.3c0.2 1.7 0.5 3.3 0.8 5zm346.9-0.9-2.4-0.5c0.4-1.6 0.7-3.3 1.1-4.9l2.4 0.5c-0.4 1.6-0.8 3.3-1.1 4.9zm-348.3-9.2c-0.2-1.7-0.3-3.4-0.4-5.1l2.5-0.2c0.1 1.7 0.3 3.3 0.4 5zm350.4-0.7-2.5-0.5c0.3-1.6 0.7-3.3 1-5l2.5 0.5c-0.4 1.7-0.7 3.3-1 5zm-351.1-9.5c-0.1-1.7-0.1-3.4-0.1-5.1h2.5c0 1.7 0 3.4 0.1 5zm353-0.5-2.5-0.5c0.3-1.6 0.6-3.3 0.9-5l2.5 0.4c-0.3 1.8-0.6 3.5-0.9 5.1zm-350.6-9.6-2.5-0.1c0-1.7 0.1-3.4 0.2-5.1l2.5 0.1c-0.1 1.7-0.1 3.4-0.2 5.1zm352.3-0.4-2.5-0.4c0.3-1.6 0.5-3.3 0.8-5l2.5 0.4c-0.2 1.7-0.5 3.4-0.8 5zm-351.7-9.6-2.5-0.2c0.1-1.7 0.3-3.4 0.5-5.1l2.5 0.3c-0.2 1.6-0.4 3.3-0.5 5zm353.3-0.4-2.5-0.4c0.3-1.7 0.5-3.3 0.7-5l2.5 0.4c-0.2 1.7-0.4 3.4-0.7 5zm-352.2-9.6-2.5-0.4c0.2-1.7 0.5-3.4 0.8-5l2.5 0.4c-0.3 1.7-0.5 3.3-0.8 5zm353.7-0.4-2.5-0.3 0.2-1.7 2.5 0.3zm-352-9.5-2.5-0.5c0.3-1.6 0.7-3.3 1-5l2.4 0.5c-0.2 1.7-0.6 3.3-0.9 5zm2.2-9.9-2.4-0.6c0.4-1.6 0.8-3.3 1.3-4.9l2.4 0.6c-0.5 1.7-0.9 3.3-1.3 4.9zm2.6-9.7-2.4-0.7c0.5-1.6 1-3.2 1.5-4.9l2.4 0.8c-0.6 1.6-1 3.2-1.5 4.8zm3-9.6-2.4-0.8c0.5-1.6 1.1-3.2 1.7-4.8l2.4 0.8c-0.6 1.7-1.2 3.3-1.7 4.8zm3.4-9.5-2.3-0.9c0.6-1.6 1.2-3.1 1.8-4.7l2.3 0.9c-0.6 1.6-1.2 3.2-1.8 4.7zm3.7-9.3-2.3-1c0.6-1.5 1.3-3.1 2-4.7l2.3 1c-0.7 1.6-1.3 3.1-2 4.7zm4.1-9.3-2.3-1c0.7-1.5 1.4-3.1 2.1-4.6l2.3 1.1-2.1 4.5zm4.3-9.1-2.2-1.1c0.7-1.5 1.5-3 2.3-4.5l2.2 1.1c-0.8 1.5-1.6 3-2.3 4.5zm4.6-9-2.2-1.2 2.4-4.5 2.2 1.2c-0.9 1.6-1.7 3.1-2.4 4.5zm4.8-8.8-2.2-1.2c0.8-1.5 1.6-2.9 2.5-4.4l2.2 1.2c-0.9 1.5-1.7 2.9-2.5 4.4zm4.9-8.8-2.2-1.2c0.8-1.5 1.6-3 2.4-4.4l2.2 1.2c-0.7 1.4-1.5 2.9-2.4 4.4zm4.8-9-2.2-1.1c0.8-1.5 1.5-3 2.2-4.5l2.3 1.1c-0.8 1.4-1.6 3-2.3 4.5zm4.4-9.2-2.3-1c0.7-1.5 1.4-3.1 2.1-4.6l2.3 1c-0.7 1.5-1.4 3.1-2.1 4.6zm4-9.3-2.3-1c0.6-1.6 1.3-3.1 1.9-4.7l2.3 0.9c-0.6 1.6-1.2 3.2-1.9 4.8zm3.8-9.5-2.3-0.9c0.6-1.6 1.2-3.2 1.7-4.7l2.4 0.8c-0.7 1.6-1.3 3.2-1.8 4.8zm3.3-9.6-2.4-0.8 1.5-4.8 2.4 0.7c-0.4 1.7-1 3.3-1.5 4.9zm3-9.7-2.4-0.7c0.5-1.6 0.9-3.2 1.4-4.8l2.4 0.7c-0.5 1.6-0.9 3.2-1.4 4.8zm2.7-9.8-2.4-0.6c0.4-1.6 0.8-3.3 1.2-4.9l2.4 0.6c-0.4 1.7-0.8 3.3-1.2 4.9zm2.3-9.8-2.4-0.5c0.4-1.6 0.7-3.3 1-4.9l2.5 0.5c-0.4 1.6-0.8 3.2-1.1 4.9zm2-10-2.5-0.4c0.3-1.7 0.6-3.3 0.9-5l2.5 0.4c-0.3 1.7-0.6 3.4-0.9 5zm1.6-10-2.5-0.4c0.2-1.7 0.5-3.3 0.7-5l2.5 0.3c-0.2 1.8-0.4 3.4-0.7 5.1zm1.3-10-2.5-0.3c0.2-1.7 0.4-3.3 0.5-5l2.5 0.2c-0.1 1.7-0.3 3.4-0.5 5.1zm1-10.1-2.5-0.2c0.1-1.7 0.3-3.3 0.4-5l2.5 0.2c-0.1 1.6-0.2 3.3-0.4 5zm0.8-10.1-2.5-0.1c0.1-1.7 0.2-3.4 0.2-5l2.5 0.1c-0.1 1.6-0.2 3.3-0.2 5zm0.4-10.2-2.5-0.1c0-1.7 0.1-3.4 0.1-5h2.5c-0.1 1.7-0.1 3.4-0.1 5.1zm-2.4-10.1v-5h2.5v5.1zm-0.2-10.1c-0.1-1.7-0.1-3.4-0.2-5l2.5-0.1c0.1 1.7 0.1 3.4 0.2 5.1zm-0.4-10.1c-0.1-1.7-0.2-3.4-0.3-5l2.5-0.2 0.3 5.1zm-0.7-10.1c-0.1-1.7-0.3-3.4-0.4-5l2.5-0.2c0.2 1.7 0.3 3.4 0.4 5.1zm-1-10c-0.2-1.7-0.4-3.4-0.6-5l2.5-0.3c0.2 1.7 0.4 3.4 0.6 5zm-1.2-10c-0.2-1.7-0.5-3.3-0.7-5l2.5-0.4c0.2 1.7 0.5 3.3 0.7 5zm-1.4-10c-0.3-1.7-0.5-3.3-0.8-5l2.5-0.4c0.3 1.7 0.6 3.3 0.8 5zm-1.7-10c-0.3-1.7-0.6-3.3-0.9-5l2.5-0.5c0.3 1.6 0.6 3.3 0.9 5zm-1.9-9.9c-0.3-1.7-0.7-3.3-1-4.9l2.4-0.5c0.4 1.6 0.7 3.3 1 5zm-2.1-9.9c-0.4-1.7-0.8-3.3-1.1-4.9l2.4-0.6c0.4 1.6 0.8 3.3 1.1 4.9zm-2.4-9.8c-0.4-1.7-0.8-3.3-1.2-4.9l2.4-0.6c0.4 1.6 0.8 3.3 1.3 4.9zm-2.5-9.8c-0.4-1.6-0.9-3.3-1.4-4.9l2.4-0.7c0.5 1.6 0.9 3.2 1.4 4.9zm-2.8-9.7c-0.5-1.6-1-3.3-1.5-4.8l2.4-0.7c0.5 1.6 1 3.2 1.5 4.9zm-2.9-9.6c-0.5-1.6-1-3.2-1.6-4.8l2.4-0.8c0.5 1.6 1 3.2 1.6 4.8zm-3.2-9.6c-0.6-1.6-1.1-3.2-1.7-4.8l2.4-0.8c0.6 1.5 1.1 3.1 1.7 4.8zm-3.4-9.5c-0.6-1.7-1.2-3.2-1.8-4.7l2.3-0.9c0.6 1.5 1.2 3.1 1.8 4.8zm-3.6-9.5c-0.7-1.7-1.3-3.3-1.9-4.7l2.3-1c0.6 1.4 1.2 3 1.9 4.7zm-3.9-9.3c-1.3-3-2.1-4.6-2.1-4.6l2.3-1.1c0 0.1 0.8 1.7 2.1 4.7z"/>
				</g>
			</g>
			<path class="st3" d="m673.2 673.1 162 445.2-445.2 162-162-445.2zm-4.4 367.9-73.2-201.2-201.1 73.2 73.1 200.9z"/>
			<path class="st2" d="m607 494.4 64.1 176.1-174.4 63.5-64.1-176.1zm-1.3 145.3-29-79.6-78.7 28.7 28.9 79.4z"/>
			<path class="st3" d="m445.2 42.1 162 445.2-445.2 162-162-445.2zm-4.3 367.9-73.2-201.2-201.1 73.2 73.1 200.9z"/>
			<path class="st2" d="m429.4 559.4 64.1 176.1-174.4 63.5-64.1-176.1zm-1.2 145.3-29-79.6-78.8 28.7 28.9 79.4z"/>
		</g>
	

</svg>
